# xmcd
#
# Track frame offsets: 
#        150
#        16660
#        32002
#        48657
#        65600
#        83450
#        102352
#        119187
#        140160
#        154345
#        168572
#        186862
#        211992
#        227490
#        249257
#        289907
#        302340
#        319810
#        333762
#
# Disc length: 4603 seconds
#
# Revision: 0
# Processed by: cddbd v1.5.2PL0 Copyright (c) Steve Scherf et al.
# Submitted via: ExactAudioCopyFreeDBPlugin 1.0
#
DISCID=0911f913
DTITLE=Various Artist - The Best of Blues CD1
DYEAR=1900
DGENRE=Blues
TTITLE0=Johnny Winter - Illustrated Man
TTITLE1=Albert Collins - Frosty
TTITLE2=John Hammond - I've Got Love if You Want It
TTITLE3=B.B. King - Three O'Clock Blues
TTITLE4=Charlie Musselwhite - Can't Stay Away from You
TTITLE5=Duke Robillard - Don't Get Me Shook Up
TTITLE6=The Boneshakers - Cold Sweat
TTITLE7=Larry McCray - Me and My Baby
TTITLE8=Colin James - No More Doggin'
TTITLE9=Kinsey Report - Too Early to Tell
TTITLE10=Pops Staples - I Shall Not Be Moved
TTITLE11=Terry Evans - Get Your Lies Straight 
TTITLE12=Hadda Brooks - Need a Little Sugar in My Bowl
TTITLE13=Roy Rogers - Down Here in the Real Big Empty
TTITLE14=Stevie Ray Vaughan - Tin Pan Allau
TTITLE15=Elmore James - Dust My Broom
TTITLE16=Solomon Burke - Today Is Your Birthday
TTITLE17=Lowell Fulson - Tramp
TTITLE18=Big Maybelle - So Good to My Baby
EXTD=
EXTT0=
EXTT1=
EXTT2=
EXTT3=
EXTT4=
EXTT5=
EXTT6=
EXTT7=
EXTT8=
EXTT9=
EXTT10=
EXTT11=
EXTT12=
EXTT13=
EXTT14=
EXTT15=
EXTT16=
EXTT17=
EXTT18=
PLAYORDER=
